<?xml version="1.0" encoding="UTF-8"?>
<svg viewBox="0 0 96 96" xmlns="http://www.w3.org/2000/svg">
 <g fill="none" stroke="#dd4814">
  <g stroke-width="5">
   <path d="m29 65.5c-2.4853 0-4.5-2.0147-4.5-4.5 0-2.0367 1.368-3.8195 3.3353-4.3467" stroke-linecap="square"/>
   <path d="m81 65.5h-52"/>
  </g>
  <path d="m79 51.5l-50 6-8-35-2-7h-4.5l-0.5-2h10l2 8h55l-2 30z" stroke-width="3"/>
 </g>
 <path d="m37 77.5c0 0.82848-0.67156 1.5-1.5 1.5-0.82843 0-1.5-0.67153-1.5-1.5 0-0.82841 0.67158-1.4999 1.5-1.4999 0.82843 0 1.5 0.67153 1.5 1.4999z" fill="#dd4814" fill-rule="evenodd" stroke-width="2.451"/>
 <path d="m40 77.5c0 2.4853-2.0147 4.5-4.5 4.5s-4.5-2.0147-4.5-4.5 2.0147-4.5 4.5-4.5 4.5 2.0147 4.5 4.5z" fill="none" stroke="#dd4814" stroke-width="9.804"/>
 <path d="m73 77.5c0 0.82848-0.67158 1.5-1.5 1.5-0.82843 0-1.5-0.67153-1.5-1.5 0-0.82841 0.67156-1.4999 1.5-1.4999 0.82842 0 1.5 0.67153 1.5 1.4999z" fill="#dd4814" fill-rule="evenodd" stroke-width="2.451"/>
 <g fill="none" stroke="#dd4814">
  <path d="m76 77.5c0 2.4853-2.0147 4.5-4.5 4.5s-4.5-2.0147-4.5-4.5 2.0147-4.5 4.5-4.5 4.5 2.0147 4.5 4.5z" stroke-width="9.804"/>
  <path d="m52 16l-23 39" stroke-width="1.5"/>
  <path d="m22.5 27.5h57"/>
  <path d="m79 33.5h-55.5"/>
  <path d="m25.5 39.5h53"/>
  <path d="m78.5 45.5h-52"/>
  <path d="m27.5 51.5h43.5"/>
  <path d="m70.5 21.5v30"/>
  <path d="m64.5 21.5v31"/>
  <path d="m58.5 21.5v32"/>
  <path d="m52.5 21.5v32"/>
  <path d="m46.5 21.5v33"/>
  <path d="m40.5 21.5v33.5"/>
  <path d="m34.5 21.5v34"/>
  <path d="m28.5 21.5v30.5"/>
  <path d="m76.5 21.5v29"/>
 </g>
</svg>
