<?xml version="1.0" encoding="iso-8859-1"?>
<!-- Uploaded to: SVG Repo, www.svgrepo.com, Generator: SVG Repo Mixer Tools -->
<svg version="1.1" id="Layer_1" xmlns="http://www.w3.org/2000/svg" xmlns:xlink="http://www.w3.org/1999/xlink" 
	 viewBox="0 0 512 512" xml:space="preserve">
<polygon style="fill:#F95428;" points="320.357,441.297 199.652,441.297 208.379,413.168 217.835,382.684 302.162,382.684 
	311.63,413.168 "/>
<g>
	<polygon style="fill:#E54728;" points="311.63,413.168 208.379,413.168 217.835,382.684 302.162,382.684 	"/>
	<rect x="167.853" y="429.338" style="fill:#E54728;" width="184.291" height="23.909"/>
</g>
<path style="fill:#E6E6E6;" d="M502.436,97.258v256.496H9.564V97.258c0-15.983,12.959-28.942,28.942-28.942h434.989
	C489.478,68.316,502.436,81.275,502.436,97.258z"/>
<path style="fill:#CCCCCC;" d="M502.436,97.258v256.496H191.783L347.972,68.316h125.522
	C489.478,68.316,502.436,81.275,502.436,97.258z"/>
<path style="fill:#F95428;" d="M473.494,58.753H38.505C17.273,58.753,0,76.027,0,97.258v256.496
	c0,21.225,17.273,38.494,38.505,38.494h434.989c21.232,0,38.505-17.268,38.505-38.494V97.258
	C512,76.027,494.726,58.753,473.494,58.753z M38.505,77.88h434.989c10.685,0,19.378,8.693,19.378,19.378V331.77H19.127V97.258
	C19.127,86.573,27.821,77.88,38.505,77.88z"/>
<path style="fill:#666666;" d="M350.552,130.601H199.619l-4.091-24.681h-44.467v21.518h26.222l2.574,15.525l12.531,92.157h20.164
	c-12.552,4.282-21.608,16.18-21.608,30.162c0,17.572,14.295,31.868,31.868,31.868s31.868-14.295,31.868-31.868
	c0-13.982-9.056-25.882-21.608-30.162h56.905c-12.551,4.282-21.607,16.18-21.607,30.162c0,17.572,14.295,31.868,31.867,31.868
	s31.867-14.295,31.867-31.868c0-13.982-9.056-25.882-21.607-30.162h25.842L350.552,130.601z M222.812,275.634
	c-5.707,0-10.35-4.643-10.35-10.35c0-5.706,4.643-10.349,10.35-10.349c5.707,0,10.35,4.643,10.35,10.349
	C233.162,270.991,228.519,275.634,222.812,275.634z M300.238,275.634c-5.706,0-10.349-4.643-10.349-10.35
	c0-5.706,4.643-10.349,10.349-10.349c5.706,0,10.349,4.643,10.349,10.349C310.587,270.991,305.944,275.634,300.238,275.634z
	 M317.549,213.603H211.177l-8.36-61.483h123.092L317.549,213.603z"/>
</svg>